<?xml version="1.0" encoding="UTF-8"?>
<!-- Generated by jsxcad -->
<!DOCTYPE svg PUBLIC "-//W3C//DTD SVG 1.1 Tiny//EN" "http://www.w3.org/Graphics/SVG/1.1/DTD/svg11-tiny.dtd">
<svg baseProfile="tiny" height="5.3750000000000036mm" width="5.3750000000000036mm" viewBox="0 0 5.3750000000000036 5.3750000000000036" version="1.1" stroke="black" stroke-width=".1" fill="none" xmlns="http://www.w3.org/2000/svg">
<path fill="#008000" stroke="#008000" d="M2.6875 -2.6875 L4.3125 -2.6875 L8.0625 1.0625 L8.0625 2.6875 L2.6875 2.6875 z"/>
<path fill="#008000" stroke="#008000" d="M8.062500000000002 1.0625 L8.062500000000002 1.0625 L8.062500000000002 2.6875 L8.062500000000002 2.6875 z"/>
<path fill="#008000" stroke="#008000" d="M2.6875 2.6875000000000018 L2.6875 2.6875000000000018 L8.0625 2.6875000000000018 L8.0625 2.6875000000000018 z"/>
<path fill="#008000" stroke="#008000" d="M4.3125 -2.6875 L4.3125 -2.6875 L8.0625 1.0625 L8.0625 1.0625 z"/>
<path fill="#008000" stroke="#008000" d="M2.6875000000000018 -2.6875 L2.6875000000000018 -2.6875 L2.6875000000000018 2.6875 L2.6875000000000018 2.6875 z"/>
<path fill="#008000" stroke="#008000" d="M2.6875 -2.6874999999999982 L2.6875 -2.6874999999999982 L4.3125 -2.6874999999999982 L4.3125 -2.6874999999999982 z"/>
<path fill="#008000" stroke="#008000" d="M4.3125 -2.6875 L2.6875 -2.6875 L2.6875 2.6875 L8.0625 2.6875 L8.0625 1.0625 z"/>
</svg>